<svg xmlns="http://www.w3.org/2000/svg" viewBox="0 0 225 225" width="225" height="225">
<g transform="translate(0,225) scale(0.1,-0.1)" fill="#000000" stroke="none">
<path d="M1389 1902 c-113 -86 -353 -269 -533 -407 l-327 -250 216 -3 215 -2
0 -495 0 -495 315 0 c243 0 317 3 320 13 3 6 4 414 3 904 l-3 893 -206 -158z
m-309 -1507 c0 -68 -2 -75 -20 -75 -18 0 -20 7 -20 75 0 68 2 75 20 75 18 0
20 -7 20 -75z m97 28 l28 -48 3 48 c2 33 7 47 18 47 11 0 14 -16 14 -75 0 -68
-2 -75 -20 -75 -14 0 -28 16 -47 53 l-28 52 -3 -52 c-3 -45 -6 -53 -23 -53
-17 0 -19 7 -19 75 0 73 1 75 25 75 18 0 31 -11 52 -47z m213 32 c0 -8 -9 -15
-20 -15 -18 0 -20 -7 -20 -60 0 -53 -2 -60 -20 -60 -16 0 -19 8 -22 58 -3 50
-6 57 -25 60 -13 2 -23 10 -23 18 0 11 15 14 65 14 51 0 65 -3 65 -15z m60
-40 c0 -54 0 -55 30 -55 17 0 30 -2 30 -4 0 -2 3 -11 6 -20 5 -13 -3 -16 -50
-16 l-56 0 0 75 c0 68 2 75 20 75 18 0 20 -7 20 -55z"/>
<path d="M510 970 l0 -220 65 0 64 0 3 78 3 77 123 3 122 3 0 49 0 50 -125 0
-125 0 0 30 c0 24 4 30 23 31 12 0 74 1 137 2 l115 2 0 55 0 55 -202 3 -203 2
0 -220z"/>
<path d="M510 470 l0 -220 65 0 65 0 0 90 0 90 70 0 69 0 3 -87 3 -88 64 0 64
0 0 38 c-1 20 -2 118 -2 217 l-1 180 -65 0 -65 0 0 -80 0 -80 -70 0 -70 0 0
80 0 80 -65 0 -65 0 0 -220z"/>
</g>
</svg>